# xmcd CD database file
#
# Track frame offsets:
#	150
#	22700
#	43515
#	58572
#	78530
#	97832
#	115762
#	138477
#	156132
#	184277
#
# Disc length: 2739 seconds
#
# Revision: 6
# Processed by: cddbd v1.5.2PL0 Copyright (c) Steve Scherf et al.
# Submitted via: CDex 1.70beta3
#
DISCID=740ab10a
DTITLE=松山千春 - 起承転結II
DYEAR=1981
DGENRE=Pop
TTITLE0=恋
TTITLE1=帰ろうか
TTITLE2=人生の空から
TTITLE3=雨の夜
TTITLE4=海を見つめて
TTITLE5=こいごごろ
TTITLE6=長い夜
TTITLE7=わかれ
TTITLE8=ふるさと
TTITLE9=風の中
EXTD=YEAR: 1981
EXTT0=
EXTT1=
EXTT2=
EXTT3=
EXTT4=
EXTT5=
EXTT6=
EXTT7=
EXTT8=
EXTT9=
PLAYORDER=
